<svg xmlns="http://www.w3.org/2000/svg" viewBox="0 0 368.553 368.553"><path d="M184.277 0c-71.683 0-130 58.317-130 130 0 87.26 119.188 229.855 124.263 235.883a7.498 7.498 0 0 0 5.705 2.67h.032a7.5 7.5 0 0 0 5.696-2.621c5.075-5.926 124.304-146.165 124.304-235.932-.001-71.683-58.317-130-130-130zm.045 349.251C160.385 319.48 69.277 201.453 69.277 130c0-63.411 51.589-115 115-115s115 51.589 115 115c-.001 73.49-90.95 189.829-114.955 219.251z" style="fill:#fa0707"/><path d="M184.277 72.293c-30.476 0-55.269 24.793-55.269 55.269s24.793 55.269 55.269 55.269 55.269-24.793 55.269-55.269-24.793-55.269-55.269-55.269zm0 95.537c-22.204 0-40.269-18.064-40.269-40.269s18.064-40.269 40.269-40.269 40.269 18.064 40.269 40.269-18.066 40.269-40.269 40.269z" style="fill:#ed0000"/></svg>